# Blender 4.5.3 LTS
# www.blender.org
mtllib Cube.mtl
o Cube
v -1.000000 -1.000000 1.000000
v -1.000000 1.000000 1.000000
v -1.000000 -1.000000 -1.000000
v -1.000000 1.000000 -1.000000
v 1.000000 -1.000000 1.000000
v 1.000000 1.000000 1.000000
v 1.000000 -1.000000 -1.000000
v 1.000000 1.000000 -1.000000
v -1.000000 -1.000000 0.000000
v -1.000000 0.000000 1.000000
v -1.000000 1.000000 0.000000
v -1.000000 0.000000 -1.000000
v 0.000000 -1.000000 -1.000000
v 0.000000 1.000000 -1.000000
v 1.000000 0.000000 -1.000000
v 1.000000 -1.000000 0.000000
v 1.000000 1.000000 0.000000
v 1.000000 0.000000 1.000000
v 0.000000 -1.000000 1.000000
v 0.000000 1.000000 1.000000
v 0.000000 1.000000 0.000000
v 0.000000 -1.000000 0.000000
v 0.000000 0.000000 1.000000
v 1.000000 0.000000 0.000000
v 0.000000 0.000000 -1.000000
v -1.000000 0.000000 0.000000
vn -1.0000 -0.0000 -0.0000
vn -0.0000 -0.0000 -1.0000
vn 1.0000 -0.0000 -0.0000
vn -0.0000 -0.0000 1.0000
vn -0.0000 -1.0000 -0.0000
vn -0.0000 1.0000 -0.0000
vt 0.500000 1.000000
vt 1.000000 0.500000
vt 0.500000 0.500000
vt 0.000000 0.500000
vt 0.500000 0.000000
vt 1.000000 0.000000
vt 1.000000 1.000000
vt 0.000000 1.000000
vt 0.000000 0.000000
s 0
f 11/1/1 12/2/1 26/3/1
f 14/1/2 15/2/2 25/3/2
f 17/1/3 18/4/3 24/3/3
f 20/1/4 10/4/4 23/3/4
f 16/2/5 19/5/5 22/3/5
f 11/4/6 20/5/6 21/3/6
f 21/3/6 6/6/6 17/2/6
f 14/1/6 17/2/6 8/7/6
f 4/8/6 21/3/6 14/1/6
f 22/3/5 1/9/5 9/4/5
f 13/1/5 9/4/5 3/8/5
f 7/7/5 22/3/5 13/1/5
f 23/3/4 1/9/4 19/5/4
f 18/2/4 19/5/4 5/6/4
f 6/7/4 23/3/4 18/2/4
f 24/3/3 5/9/3 16/5/3
f 15/2/3 16/5/3 7/6/3
f 8/7/3 24/3/3 15/2/3
f 25/3/2 7/6/2 13/5/2
f 12/4/2 13/5/2 3/9/2
f 4/8/2 25/3/2 12/4/2
f 26/3/1 3/6/1 9/5/1
f 10/4/1 9/5/1 1/9/1
f 2/8/1 26/3/1 10/4/1
f 11/1/1 4/7/1 12/2/1
f 14/1/2 8/7/2 15/2/2
f 17/1/3 6/8/3 18/4/3
f 20/1/4 2/8/4 10/4/4
f 16/2/5 5/6/5 19/5/5
f 11/4/6 2/9/6 20/5/6
f 21/3/6 20/5/6 6/6/6
f 14/1/6 21/3/6 17/2/6
f 4/8/6 11/4/6 21/3/6
f 22/3/5 19/5/5 1/9/5
f 13/1/5 22/3/5 9/4/5
f 7/7/5 16/2/5 22/3/5
f 23/3/4 10/4/4 1/9/4
f 18/2/4 23/3/4 19/5/4
f 6/7/4 20/1/4 23/3/4
f 24/3/3 18/4/3 5/9/3
f 15/2/3 24/3/3 16/5/3
f 8/7/3 17/1/3 24/3/3
f 25/3/2 15/2/2 7/6/2
f 12/4/2 25/3/2 13/5/2
f 4/8/2 14/1/2 25/3/2
f 26/3/1 12/2/1 3/6/1
f 10/4/1 26/3/1 9/5/1
f 2/8/1 11/1/1 26/3/1
